<svg width="1600" height="1600" viewBox="0 0 1600 1600" fill="none" xmlns="http://www.w3.org/2000/svg">
<g id="logo_Helene_fourment">
<path id="schaduw" d="M1273 1446.58C1273 1468.38 1070.52 1486.05 780.793 1486.05C491.07 1486.05 325.824 1468.38 325.824 1446.58C325.824 1424.78 491.07 1407.11 780.793 1407.11C1070.52 1407.11 1273 1424.78 1273 1446.58Z" fill="#DDD6D6"/>
<g id="vogel_HF">
<path id="gele_vleugel" d="M782.507 771.247C894.461 981.491 911.937 1153.02 898.363 1234.98C820.955 1214.18 648.794 1122.53 532.521 968.506C368.083 750.679 398.386 582.094 398.386 488.942C491.826 503.731 633.379 560.535 782.507 771.247Z" fill="#F39200"/>
<path id="gele_snoet" d="M1265.11 1060.09C1198.25 1173.58 1096.51 1289.77 887.22 1233.03C916.289 1165.47 910.475 1154.66 930.823 1077.65C930.823 981.394 930.823 1019.56 930.823 938.49C1076.16 895.255 1224.41 958.756 1265.11 1060.09Z" fill="#F39200"/>
<path id="rode_vleugel" d="M895.925 682.738C968.612 961.063 925.845 1146.71 895.925 1235.24C821.2 1184.54 630.777 1033.22 550.866 806.239C446.22 508.999 500.268 319.832 533.425 211.759C638.07 252.292 785.482 390.902 895.925 682.738Z" fill="#E7302A" fill-opacity="0.79"/>
</g>
</g>
</svg>
